<svg xmlns="http://www.w3.org/2000/svg" width="897" height="1170" viewBox="0 0 897 1170">
<g>
<path d="M 532.01,1029.97 L 532.01,1035.39 L 532.02,1046.14 L 532.03,1051.36 L 532.04,1061.69 L 532.05,1066.69 L 532.07,1076.55 L 532.08,1081.29 L 532.10,1090.62 L 532.11,1095.07 L 532.14,1103.83 L 532.15,1107.96 L 532.18,1116.07 L 532.20,1119.87 L 532.23,1127.28 L 532.24,1130.70 L 532.28,1137.35 L 532.29,1140.37 L 532.33,1146.21 L 532.35,1148.81 L 532.39,1153.78 L 532.41,1155.91 L 532.45,1159.95 L 532.47,1161.60 L 532.51,1164.66 L 532.53,1165.80 L 532.55,1166.87 L 532.57,1167.30 L 532.59,1168.10 L 532.60,1168.40 L 532.62,1168.92 L 532.63,1169.08 L 532.66,1169.32 L 532.63,1169.08 L 532.62,1168.93 L 532.60,1168.40 L 532.59,1168.11 L 532.57,1167.31 L 532.55,1166.87 L 532.53,1165.80 L 532.51,1164.67 L 532.47,1161.63 L 532.45,1159.98 L 532.41,1155.95 L 532.39,1153.82 L 532.35,1148.86 L 532.33,1146.28 L 532.29,1140.45 L 532.28,1137.44 L 532.24,1130.80 L 532.23,1127.39 L 532.20,1120.00 L 532.18,1116.22 L 532.15,1108.13 L 532.14,1104.01 L 532.11,1095.28 L 532.10,1090.84 L 532.08,1081.53 L 532.07,1076.81 L 532.05,1066.97 L 532.04,1061.99 L 532.03,1051.68 L 532.02,1046.48 L 532.01,1035.76 L 532.01,1030.35 L 532.00,1019.28 L 532.00,1002.33 L 532.00,1001.87 L 532.00,1018.86 M 0.00,836.00 L 0.00,668.00 L 198.00,668.00 L 198.00,836.00 M 365.00,836.00 L 365.00,668.00 L 897.00,668.00 L 897.00,836.00 L 699.00,836.00 L 699.00,836.26 L 694.97,835.61 L 694.15,835.55 L 693.20,835.50 L 692.54,835.48 L 691.09,835.44 L 690.18,835.42 L 688.26,835.38 L 687.13,835.36 L 684.76,835.33 L 683.42,835.31 L 680.64,835.28 L 679.10,835.26 L 675.92,835.23 L 674.20,835.21 L 670.67,835.18 L 668.78,835.17 L 664.91,835.14 L 662.87,835.13 L 658.70,835.11 L 656.51,835.10 L 647.49,835.06 L 642.64,835.05 L 632.73,835.03 L 627.51,835.02 L 616.93,835.01 L 611.47,835.02 L 532.00,835.07 L 532.00,836.00 Z" fill="rgba(5,207,245,1)"/>
<path d="M 365.00,835.00 L 198.00,835.00 L 198.00,668.00 L 365.00,668.00 M 615.50,167.04 L 605.53,167.04 L 615.50,167.04 Z" fill="rgba(1,144,243,1)"/>
<path d="M 627.51,835.02 L 632.73,835.03 L 642.64,835.05 L 647.49,835.06 L 656.51,835.10 L 658.70,835.11 L 662.87,835.13 L 664.91,835.14 L 668.78,835.17 L 670.67,835.18 L 674.20,835.21 L 675.92,835.23 L 679.10,835.26 L 680.64,835.28 L 683.42,835.31 L 684.76,835.33 L 687.13,835.36 L 688.26,835.38 L 690.18,835.42 L 691.09,835.44 L 692.54,835.48 L 693.20,835.50 L 694.15,835.55 L 694.97,835.61 L 699.00,836.26 L 699.00,1170.00 L 610.47,1170.00 L 599.51,1169.99 L 594.13,1169.98 L 583.95,1169.95 L 581.47,1169.94 L 576.69,1169.92 L 574.33,1169.91 L 569.82,1169.89 L 567.61,1169.87 L 563.40,1169.85 L 561.34,1169.83 L 557.47,1169.80 L 555.58,1169.79 L 552.07,1169.76 L 550.36,1169.74 L 547.24,1169.71 L 545.73,1169.69 L 543.02,1169.65 L 541.72,1169.63 L 539.46,1169.59 L 538.39,1169.57 L 536.60,1169.53 L 535.77,1169.51 L 534.49,1169.47 L 533.92,1169.45 L 533.16,1169.40 L 532.86,1169.38 L 532.67,1169.33 L 532.66,1169.32 L 532.63,1169.08 L 532.62,1168.92 L 532.60,1168.40 L 532.59,1168.10 L 532.57,1167.30 L 532.55,1166.87 L 532.53,1165.80 L 532.51,1164.66 L 532.47,1161.60 L 532.45,1159.95 L 532.41,1155.91 L 532.39,1153.78 L 532.35,1148.81 L 532.33,1146.21 L 532.29,1140.37 L 532.28,1137.35 L 532.24,1130.70 L 532.23,1127.28 L 532.20,1119.87 L 532.18,1116.07 L 532.15,1107.96 L 532.14,1103.83 L 532.11,1095.07 L 532.10,1090.62 L 532.08,1081.29 L 532.07,1076.55 L 532.05,1066.69 L 532.04,1061.69 L 532.03,1051.36 L 532.02,1046.14 L 532.01,1035.39 L 532.01,1029.97 L 532.00,1018.86 L 532.00,1001.87 L 532.00,835.07 L 611.47,835.02 L 616.93,835.01 M 699.00,668.00 L 532.00,668.00 L 532.00,502.00 L 699.00,502.00 M 532.00,168.23 L 534.25,167.63 L 534.34,167.61 L 534.97,167.56 L 535.35,167.54 L 536.53,167.49 L 537.18,167.47 L 538.88,167.43 L 539.78,167.41 L 541.96,167.37 L 543.10,167.35 L 545.71,167.32 L 547.07,167.30 L 550.09,167.27 L 551.64,167.25 L 555.02,167.23 L 556.76,167.21 L 560.47,167.19 L 562.36,167.17 L 566.36,167.15 L 568.40,167.14 L 572.65,167.12 L 576.96,167.10 L 586.18,167.08 L 590.87,167.06 L 600.62,167.05 L 605.53,167.04 L 615.50,167.04 L 620.49,167.04 L 630.38,167.05 L 635.29,167.05 L 644.82,167.08 L 649.50,167.09 L 658.35,167.12 L 660.51,167.13 L 664.64,167.15 L 666.67,167.16 L 670.53,167.19 L 672.43,167.20 L 675.98,167.23 L 677.71,167.24 L 680.91,167.27 L 682.47,167.29 L 685.29,167.32 L 686.65,167.34 L 689.04,167.37 L 690.19,167.39 L 692.12,167.43 L 693.03,167.45 L 694.47,167.49 L 695.13,167.51 L 696.03,167.56 L 696.75,167.63 L 699.00,168.23 L 699.00,334.00 L 532.00,334.00 Z" fill="rgba(2,186,118,1)"/>
<path d="M 198.00,502.00 L 198.00,334.00 L 365.00,334.00 L 365.00,502.00 Z" fill="rgba(253,92,2,1)"/>
<path d="M 0.00,334.00 L 198.00,334.00 L 198.00,502.00 L 0.00,502.00 M 897.00,334.00 L 897.00,502.00 L 365.00,502.00 L 365.00,334.00 Z" fill="rgba(253,183,2,1)"/>
<path d="M 198.00,919.00 L 198.00,835.00 L 281.50,835.00 L 365.00,835.00 L 365.00,919.00 L 365.00,1003.00 L 281.50,1003.00 L 198.00,1003.00 L 198.00,919.00 M 198.00,585.00 L 198.00,502.00 L 281.50,502.00 L 365.00,502.00 L 365.00,585.00 L 365.00,668.00 L 281.50,668.00 L 198.00,668.00 L 198.00,585.00 M 198.00,167.00 L 198.00,0.00 L 281.50,0.00 L 365.00,0.00 L 365.00,167.00 L 365.00,334.00 L 281.50,334.00 L 198.00,334.00 L 198.00,167.00 Z" fill="rgba(254,0,83,1)"/>
</g>
</svg>